<?xml version="1.0" encoding="UTF-8" standalone="no"?>

<svg
   xmlns:dc="http://purl.org/dc/elements/1.1/"
   xmlns:cc="http://creativecommons.org/ns#"
   xmlns:rdf="http://www.w3.org/1999/02/22-rdf-syntax-ns#"
   xmlns:svg="http://www.w3.org/2000/svg"
   xmlns="http://www.w3.org/2000/svg"
   xmlns:sodipodi="http://sodipodi.sourceforge.net/DTD/sodipodi-0.dtd"
   xmlns:inkscape="http://www.inkscape.org/namespaces/inkscape"
   width="200"
   height="200"
   id="svg2"
   version="1.1"
   inkscape:version="0.48.5 r10040"
   sodipodi:docname="offline.svg">
  <defs
     id="defs4" />
  <sodipodi:namedview
     id="base"
     pagecolor="#ffffff"
     bordercolor="#666666"
     borderopacity="1.0"
     inkscape:pageopacity="0.0"
     inkscape:pageshadow="2"
     inkscape:zoom="2"
     inkscape:cx="180.05752"
     inkscape:cy="116.59262"
     inkscape:document-units="px"
     inkscape:current-layer="layer1"
     showgrid="false"
     showguides="true"
     inkscape:guide-bbox="true"
     inkscape:window-width="1366"
     inkscape:window-height="705"
     inkscape:window-x="-8"
     inkscape:window-y="-8"
     inkscape:window-maximized="1">
  </sodipodi:namedview>
  <metadata
     id="metadata7">
    <rdf:RDF>
      <cc:Work
         rdf:about="">
        <dc:format>image/svg+xml</dc:format>
        <dc:type
           rdf:resource="http://purl.org/dc/dcmitype/StillImage" />
      </cc:Work>
    </rdf:RDF>
  </metadata>
  <g
     inkscape:label="Layer 1"
     inkscape:groupmode="layer"
     id="layer1"
     transform="translate(0,-852.36218)">
    <path
       style="fill:#fff;fill-opacity:1"
       d="M 0 0.03125 L 0 200 L 200 200 L 200 0.03125 L 0 0.03125 z M 49.9375 30.40625 C 47.505946 32.19773 45.166733 34.14656 42.96875 36.21875 C 42.685824 36.487649 42.422283 36.754774 42.15625 37.03125 L 46.59375 34.4375 C 47.260481 35.46012 47.876076 36.13828 49.15625 36.3125 C 52.152641 36.80063 55.178415 36.91938 58.1875 37.3125 C 62.032681 37.78437 65.855049 38.59683 69.1875 40.6875 C 70.376869 41.51438 71.20107 42.01452 72.25 43.03125 C 74.233131 44.95349 75.512986 47.43112 76.59375 49.9375 C 78.244836 54.04201 79.713181 58.25131 79.375 62.75 C 78.955781 67.88869 77.896509 72.66457 75.5 77.28125 C 74.690119 78.85996 74.075119 80.22492 73.0625 81.6875 C 71.332932 84.1856 69.034213 86.25691 66.5 87.90625 C 61.560245 90.75442 56.664039 93.6541 51.6875 96.4375 C 49.023096 97.92772 45.803738 98.22 42.84375 97.75 C 41.406241 97.34745 40.901031 97.27038 39.53125 96.59375 C 37.067868 95.37691 35.078378 93.44606 33.25 91.4375 C 30.098287 87.94248 27.137931 84.21968 24.75 80.15625 C 24.418937 79.44956 24.085593 78.7811 23.78125 78.0625 C 22.185393 74.29442 21.336535 70.2675 20.84375 66.21875 C 20.77417 65.40896 20.655318 64.59346 20.625 63.78125 C 20.487058 60.08584 21.170653 56.40948 22.40625 52.9375 C 23.945332 48.94651 25.878986 45.12037 28.90625 42.03125 C 30.054591 40.83994 30.259323 40.58103 31.46875 39.5 C 32.500201 38.57805 33.648704 37.76091 34.65625 36.8125 C 34.865282 36.61573 35.051506 36.39489 35.25 36.1875 L 49.9375 30.40625 z M 133 32.40625 L 120.46875 41.8125 C 115.86508 42.24567 111.26276 42.74977 106.65625 43.15625 C 104.77671 43.344686 102.8756 43.507653 101 43.71875 C 101.20642 46.072418 101.42538 48.433604 101.625 50.78125 C 101.93826 54.225713 102.13474 57.670479 102.25 61.125 L 108.8125 56.34375 C 110.31957 56.50152 111.82678 56.71998 113.34375 56.8125 C 114.67289 56.8779 115.98466 57.19646 117.3125 57.3125 C 118.41189 57.3845 119.49252 57.3763 120.59375 57.375 C 121.83894 57.2659 123.02931 57.50116 124.25 57.6875 C 124.3964 57.6635 124.5411 57.649 124.6875 57.625 L 111.875 66.875 C 111.70161 66.8414 111.54838 66.81487 111.375 66.78125 C 110.20406 66.60908 109.02593 66.61322 107.84375 66.625 C 106.7044 66.6033 105.5663 66.57928 104.4375 66.40625 C 103.75126 66.29994 103.0618 66.193382 102.375 66.09375 C 102.40786 67.87894 102.41736 69.652477 102.4375 71.4375 C 102.3697 76.53931 102.72166 81.61137 103.1875 86.6875 L 89.90625 93.5625 C 89.723749 88.38935 89.446223 83.20966 89.5 78.03125 C 89.41506 71.18364 89.263277 64.32709 88.6875 57.5 C 88.168669 52.27311 87.569302 47.03783 86.59375 41.875 L 100.5 34.65625 C 100.50243 36.524406 100.59464 38.384191 100.71875 40.25 L 107.3125 35.34375 C 111.05403 34.97856 114.79323 34.74784 118.53125 34.34375 C 123.36793 33.85359 128.22972 33.36834 133 32.40625 z M 177.90625 33.84375 L 165.125 43.15625 C 162.02735 43.07708 158.92653 43.2432 155.84375 43.5625 C 155.36621 43.593481 154.88097 43.662949 154.40625 43.71875 C 153.76516 46.436108 153.1543 49.17418 152.59375 51.90625 C 152.15132 54.190626 151.74555 56.484451 151.375 58.78125 L 154.90625 56.15625 C 156.8094 55.92606 158.70088 55.71289 160.59375 55.40625 C 164.1627 54.8629 167.76658 54.31551 171.25 53.34375 L 158.6875 62.90625 C 156.00662 63.388371 153.31687 63.774286 150.625 64.1875 C 150.38312 66.280338 150.18049 68.389673 150.09375 70.5 C 150.04585 71.665068 150.04765 72.834062 150.03125 74 C 150.20382 77.85787 150.00974 76.028408 150.5625 79.4375 L 137.34375 86.40625 C 136.99528 82.697212 137.10136 84.638806 137.09375 80.5625 C 137.34067 73.084916 138.0886 65.640039 139.46875 58.28125 C 140.26474 53.770767 141.17375 49.267256 141.71875 44.71875 L 152.40625 39.71875 L 158.15625 35.59375 L 158.78125 35.59375 C 161.85928 35.350918 164.92086 34.802476 168 34.5625 C 171.30073 34.255231 174.59638 34.025538 177.90625 33.84375 z M 36.6875 45.25 C 36.48767 45.688198 36.312909 46.142159 36.125 46.59375 C 34.900475 49.92242 34.018313 53.432 34.03125 57 C 34.03405 57.77024 34.115671 58.54332 34.15625 59.3125 C 34.547111 63.22877 35.350181 67.11989 36.90625 70.75 C 37.198324 71.43137 37.524281 72.08104 37.84375 72.75 C 40.189033 76.66481 43.022533 80.31402 46.125 83.65625 C 48.283721 85.95997 50.747124 88.00712 53.875 88.78125 C 54.385582 88.90761 54.918768 88.94419 55.4375 89.03125 C 56.277915 89.086458 57.120548 89.061859 57.96875 88.96875 C 58.402971 88.517383 58.826318 88.054803 59.21875 87.5625 C 60.479322 85.98112 60.865765 85.16548 61.875 83.40625 C 64.339944 78.95889 65.438323 74.48581 65.90625 69.46875 C 66.209659 65.21996 64.971339 61.17065 63.40625 57.28125 C 62.38062 54.95069 61.176205 52.65857 59.25 50.9375 C 58.372668 50.15361 57.322299 49.5157 56.34375 48.875 C 53.090115 47.02842 49.44685 46.45736 45.78125 46.125 C 42.748397 45.794689 39.704854 45.710011 36.6875 45.25 z M 67.53125 84.875 C 67.473051 84.889656 66.795694 85.26554 65.125 86.1875 C 66.490581 85.459396 67.608956 84.855431 67.53125 84.875 z M 132.0625 99.4375 L 119.875 109.21875 L 130.6875 102.9375 C 130.96678 102.34457 131.99781 102.0756 132.53125 101.875 L 130.6875 102.9375 C 130.6369 103.04493 130.41024 104.38449 130.40625 104.40625 C 130.15877 108.14499 129.86034 111.88344 129.65625 115.625 C 129.34586 121.66583 129.23383 127.70245 129.4375 133.75 C 129.75264 138.65827 130.08247 143.5797 130.875 148.4375 C 131.19773 150.1123 131.52828 151.7817 131.9375 153.4375 C 132.0295 153.8097 132.12687 154.1903 132.21875 154.5625 C 132.29185 154.8588 132.68414 155.2578 132.4375 155.4375 C 128.11445 158.5881 123.45199 161.30065 118.96875 164.21875 C 117.70965 163.25935 116.59715 162.1284 115.625 160.875 C 113.25791 157.7741 110.93521 154.61635 108.71875 151.40625 C 106.8053 148.46016 105.00952 145.44813 103.4375 142.3125 C 103.41952 142.50077 103.39293 142.68675 103.375 142.875 C 103.24397 145.75335 103.14258 148.64895 103.15625 151.53125 L 88.96875 158.53125 C 89.489737 155.62355 89.558561 152.6291 89.78125 149.6875 C 90.17918 145.50383 90.65866 141.32584 91.1875 137.15625 C 91.584428 134.03243 91.804313 130.91667 92.34375 127.8125 C 93.691017 121.18052 97.911654 122.21527 107 117.6875 C 107.25573 117.5601 108.70196 119.01528 108.71875 119.03125 C 111.26113 122.44388 112.68557 126.51594 114.3125 130.40625 C 114.87198 131.88329 115.51602 133.31288 116.21875 134.71875 C 116.22971 130.57508 116.32217 126.42275 116.4375 122.28125 C 116.55034 118.66173 116.5908 115.05809 116.53125 111.4375 C 116.54135 109.60243 116.43208 108.82556 117.875 107.5625 L 132.0625 99.4375 z M 188.28125 105.375 L 175.53125 114.625 C 171.98718 114.76839 168.47816 115.18877 164.96875 115.6875 C 162.14125 116.14905 159.29676 116.60485 156.46875 117.0625 C 156.58915 118.69881 156.71119 120.33803 156.84375 121.96875 C 157.10208 125.66451 157.27624 129.36422 157.4375 133.0625 C 159.77958 132.77284 162.15172 132.56801 164.5 132.34375 C 168.12848 132.04366 171.7298 131.69808 175.34375 131.25 C 178.17512 130.91508 181.02123 130.7337 183.84375 130.34375 L 171.1875 139.78125 C 168.47597 139.74645 165.78206 140.06856 163.09375 140.375 C 161.32583 140.59068 159.55477 140.78028 157.78125 140.9375 C 157.99229 146.26682 158.3342 151.589 158.75 156.90625 C 159.54179 156.81532 160.33091 156.72785 161.125 156.65625 C 166.00161 156.20785 170.89507 155.7704 175.78125 155.4375 C 178.97079 155.2425 182.15292 155.047 185.34375 154.875 L 172.59375 164.125 C 169.58761 164.092 166.53474 164.2498 163.53125 164.4375 C 158.73421 164.7094 153.94064 165.08825 149.15625 165.53125 C 148.2629 165.6133 147.38901 165.69887 146.5 165.8125 L 145.59375 166.28125 C 145.58736 166.16641 145.5691 166.05231 145.5625 165.9375 C 144.15901 166.13075 142.77341 166.36336 141.375 166.59375 L 145.4375 163.53125 C 145.2076 157.83136 144.95387 152.13428 144.65625 146.4375 C 144.59463 145.08618 144.53482 143.72764 144.46875 142.375 C 143.90434 142.4631 143.3429 142.55004 142.78125 142.65625 L 144.40625 141.4375 C 144.19548 137.23283 143.95879 133.03263 143.59375 128.84375 C 143.26487 125.89875 142.97736 122.94268 142.4375 120.03125 C 142.17671 120.13042 141.87182 120.23493 141.75 120.28125 L 142.40625 119.78125 C 142.30057 119.22801 142.19101 118.67397 142.0625 118.125 L 149.8125 114.03125 L 154.03125 110.75 C 157.06336 109.81616 160.18794 109.38575 163.3125 108.875 C 167.8671 108.16521 172.4122 107.38515 176.96875 106.6875 C 180.72233 106.14903 184.50069 105.67608 188.28125 105.375 z M 42.0625 113.8125 C 41.436122 117.47542 40.582231 121.12124 39.78125 124.75 C 38.280549 130.85238 36.993898 137.01054 35.84375 143.1875 C 34.882582 148.50181 34.012936 153.8199 33.40625 159.1875 C 33.46525 160.3955 32.706526 162.83465 33.34375 163.96875 C 33.46571 164.18585 33.924143 164.2153 34.09375 164.25 C 36.675424 164.29 39.228252 163.92715 41.75 163.40625 C 45.620889 162.13665 49.6003 161.30985 53.625 160.71875 C 56.276961 160.36665 59.027737 160.16475 61.6875 160.59375 C 63.278366 160.85025 63.985002 161.15185 65.5 161.65625 L 52.9375 170.21875 C 52.355182 170.05315 51.778936 169.84805 51.1875 169.71875 C 48.027879 169.02745 44.730673 169.33655 41.5625 169.78125 C 39.410316 170.14785 37.301647 170.54395 35.1875 171.09375 C 34.527912 171.26525 33.876068 171.47625 33.21875 171.65625 C 32.596591 171.83445 31.969674 172.023 31.34375 172.1875 C 30.755125 172.3422 30.154579 172.45275 29.5625 172.59375 C 27.315044 172.98075 24.226168 173.6617 21.96875 173.1875 C 21.619493 173.1145 21.27515 172.95925 20.9375 172.84375 C 20.666458 172.64515 20.357856 172.4922 20.125 172.25 C 18.510722 170.5711 19.691757 167.79005 19.875 165.84375 C 20.768496 160.41685 21.611959 154.99375 22.65625 149.59375 C 23.839255 143.46331 25.029763 137.34746 26.375 131.25 C 27.006081 127.85893 27.625866 124.43598 27.9375 121 L 42.0625 113.8125 z M 86.96875 114.125 C 85.878966 118.39302 85.454285 122.79738 84.875 127.15625 C 84.069881 132.96343 83.324217 138.7694 82.65625 144.59375 C 82.104148 149.48276 81.858732 154.3955 81.78125 159.3125 L 68.3125 166.125 C 68.501028 161.1239 68.768152 156.12405 69.40625 151.15625 C 70.072808 145.32682 70.841879 139.50169 71.625 133.6875 C 72.079866 129.44971 72.571837 125.2261 72.78125 120.96875 L 86.96875 114.125 z M 107.59375 119.625 C 107.4999 119.61499 107.1773 119.7067 107.0625 119.78125 C 106.94278 119.85904 106.84487 120.01521 106.75 120.1875 C 107.0308 120.01931 107.31351 119.85664 107.59375 119.6875 C 107.63282 119.66393 107.62503 119.62834 107.59375 119.625 z M 131.4375 154.34375 C 131.22945 154.46901 131.02026 154.593 130.8125 154.71875 C 130.84275 154.74077 130.8758 154.75958 130.90625 154.78125 C 131.26689 155.03785 131.5714 155.12645 131.59375 154.96875 C 131.62425 154.75335 131.48685 154.55555 131.4375 154.34375 z "
       transform="translate(0,852.36218)"
       id="rect3015" />
  </g>
</svg>
